# xmcd CD database file
#
# Track frame offsets:
#	150
#	12788
#	28615
#	42515
#	59195
#	77400
#	94475
#	110615
#	126965
#	142053
#	153773
#	168678
#	184353
#	195990
#
# Disc length: 2832 seconds
#
# Revision: 0
# Processed by: cddbd v1.4PL0 Copyright (c) Steve Scherf et al.
# Submitted via: CDex 1.51
#
DISCID=c50b0e0e
DTITLE=Lars Luis Linek - Songs ut Hamburg
DYEAR=1994
DGENRE=Blues
TTITLE0=Äppel klaun
TTITLE1=Große Stadt am großen Strom
TTITLE2=Blow Boys Blow
TTITLE3=Mach mir den Tango
TTITLE4=Seeräuber
TTITLE5=Wat wi doot
TTITLE6=Nachtschicht
TTITLE7=Sylvester an der Elbe
TTITLE8=Loot mi an Land
TTITLE9=Bri-Gitt-E
TTITLE10=Janbimi
TTITLE11=Seute Mäken Polka
TTITLE12=Finkwarder Anna
TTITLE13=Einmal noch nach Bombay
EXTD=YEAR: 1994
EXTT0=
EXTT1=
EXTT2=
EXTT3=
EXTT4=
EXTT5=
EXTT6=
EXTT7=
EXTT8=
EXTT9=
EXTT10=
EXTT11=
EXTT12=
EXTT13=
PLAYORDER=
